<svg width="412" height="270" viewBox="0 0 412 270" fill="none" xmlns="http://www.w3.org/2000/svg">
<line x1="8.30227" y1="99.866" x2="262.302" y2="254.866" stroke="black" stroke-width="5"/>
<circle cx="13" cy="101" r="13" fill="black"/>
<circle cx="261" cy="257" r="13" fill="black"/>
<path d="M24.7702 78.1412C24.2959 78.8204 24.462 79.7556 25.1412 80.2298L36.2098 87.9588C36.8891 88.4331 37.8242 88.2669 38.2985 87.5877C38.7727 86.9085 38.6066 85.9734 37.9274 85.4991L28.0886 78.6289L34.9588 68.7902C35.4331 68.111 35.2669 67.1758 34.5877 66.7016C33.9085 66.2273 32.9734 66.3934 32.4991 67.0726L24.7702 78.1412ZM222.738 42.5231L25.7376 77.5231L26.2624 80.4769L223.262 45.4769L222.738 42.5231Z" fill="black"/>
<path d="M267.106 239.204C267.771 239.698 268.71 239.559 269.204 238.894L277.253 228.056C277.747 227.391 277.608 226.451 276.943 225.957C276.278 225.463 275.338 225.602 274.844 226.267L267.69 235.901L258.056 228.747C257.391 228.253 256.451 228.392 255.957 229.057C255.463 229.722 255.602 230.662 256.267 231.156L267.106 239.204ZM240.516 62.2192L266.516 238.219L269.484 237.781L243.484 61.7808L240.516 62.2192Z" fill="black"/>
<path d="M233.554 23V1.90909H246.283V4.17472H236.108V11.3011H245.624V13.5668H236.108V20.7344H246.447V23H233.554ZM252.987 13.4844V23H250.556V7.18182H252.904V9.65341H253.11C253.481 8.85014 254.044 8.20478 254.799 7.71733C255.555 7.22301 256.529 6.97585 257.724 6.97585C258.795 6.97585 259.732 7.19555 260.536 7.63494C261.339 8.06747 261.964 8.72656 262.41 9.61222C262.856 10.491 263.079 11.6032 263.079 12.9489V23H260.649V13.1136C260.649 11.871 260.326 10.9029 259.681 10.2095C259.035 9.50923 258.15 9.15909 257.024 9.15909C256.248 9.15909 255.555 9.3273 254.944 9.66371C254.339 10.0001 253.862 10.491 253.512 11.1364C253.162 11.7817 252.987 12.5644 252.987 13.4844ZM273.493 23.3295C272.175 23.3295 271.011 22.9966 270.002 22.3306C268.993 21.6578 268.203 20.7103 267.634 19.4883C267.064 18.2594 266.779 16.8073 266.779 15.1321C266.779 13.4706 267.064 12.0289 267.634 10.8068C268.203 9.58475 268.996 8.64074 270.013 7.97479C271.029 7.30883 272.203 6.97585 273.535 6.97585C274.564 6.97585 275.378 7.14749 275.975 7.49077C276.579 7.82718 277.039 8.21165 277.355 8.64418C277.678 9.06984 277.928 9.41998 278.107 9.6946H278.313V1.90909H280.743V23H278.395V20.5696H278.107C277.928 20.858 277.674 21.2218 277.345 21.6612C277.015 22.0937 276.545 22.4817 275.934 22.8249C275.323 23.1613 274.509 23.3295 273.493 23.3295ZM273.823 21.1463C274.798 21.1463 275.622 20.8923 276.294 20.3842C276.967 19.8693 277.479 19.1587 277.829 18.2525C278.179 17.3394 278.354 16.2855 278.354 15.0909C278.354 13.91 278.182 12.8768 277.839 11.9911C277.496 11.0986 276.988 10.4052 276.315 9.91087C275.642 9.40968 274.812 9.15909 273.823 9.15909C272.793 9.15909 271.935 9.42341 271.248 9.95206C270.569 10.4738 270.057 11.1844 269.714 12.0838C269.377 12.9763 269.209 13.9787 269.209 15.0909C269.209 16.2169 269.381 17.2398 269.724 18.1598C270.074 19.0729 270.589 19.8007 271.269 20.343C271.955 20.8786 272.807 21.1463 273.823 21.1463ZM293.688 28.9318V7.18182H296.036V9.6946H296.325C296.503 9.41998 296.75 9.06984 297.066 8.64418C297.389 8.21165 297.849 7.82718 298.446 7.49077C299.05 7.14749 299.867 6.97585 300.897 6.97585C302.229 6.97585 303.403 7.30883 304.419 7.97479C305.435 8.64074 306.228 9.58475 306.798 10.8068C307.368 12.0289 307.653 13.4706 307.653 15.1321C307.653 16.8073 307.368 18.2594 306.798 19.4883C306.228 20.7103 305.439 21.6578 304.429 22.3306C303.42 22.9966 302.256 23.3295 300.938 23.3295C299.922 23.3295 299.109 23.1613 298.498 22.8249C297.887 22.4817 297.416 22.0937 297.087 21.6612C296.757 21.2218 296.503 20.858 296.325 20.5696H296.119V28.9318H293.688ZM296.078 15.0909C296.078 16.2855 296.253 17.3394 296.603 18.2525C296.953 19.1587 297.464 19.8693 298.137 20.3842C298.81 20.8923 299.634 21.1463 300.609 21.1463C301.625 21.1463 302.473 20.8786 303.152 20.343C303.839 19.8007 304.354 19.0729 304.697 18.1598C305.047 17.2398 305.222 16.2169 305.222 15.0909C305.222 13.9787 305.051 12.9763 304.707 12.0838C304.371 11.1844 303.86 10.4738 303.173 9.95206C302.493 9.42341 301.639 9.15909 300.609 9.15909C299.62 9.15909 298.789 9.40968 298.117 9.91087C297.444 10.4052 296.936 11.0986 296.592 11.9911C296.249 12.8768 296.078 13.91 296.078 15.0909ZM317.786 23.3295C316.358 23.3295 315.105 22.9897 314.027 22.31C312.956 21.6303 312.119 20.6795 311.515 19.4574C310.917 18.2353 310.619 16.8073 310.619 15.1733C310.619 13.5256 310.917 12.0872 311.515 10.8583C312.119 9.62938 312.956 8.67507 314.027 7.99538C315.105 7.3157 316.358 6.97585 317.786 6.97585C319.214 6.97585 320.464 7.3157 321.535 7.99538C322.613 8.67507 323.45 9.62938 324.048 10.8583C324.652 12.0872 324.954 13.5256 324.954 15.1733C324.954 16.8073 324.652 18.2353 324.048 19.4574C323.45 20.6795 322.613 21.6303 321.535 22.31C320.464 22.9897 319.214 23.3295 317.786 23.3295ZM317.786 21.1463C318.871 21.1463 319.764 20.8683 320.464 20.3121C321.164 19.756 321.682 19.0249 322.019 18.1186C322.355 17.2124 322.524 16.2306 322.524 15.1733C322.524 14.116 322.355 13.1308 322.019 12.2177C321.682 11.3046 321.164 10.5665 320.464 10.0036C319.764 9.44058 318.871 9.15909 317.786 9.15909C316.702 9.15909 315.809 9.44058 315.109 10.0036C314.408 10.5665 313.89 11.3046 313.554 12.2177C313.217 13.1308 313.049 14.116 313.049 15.1733C313.049 16.2306 313.217 17.2124 313.554 18.1186C313.89 19.0249 314.408 19.756 315.109 20.3121C315.809 20.8683 316.702 21.1463 317.786 21.1463ZM328.664 23V7.18182H331.094V23H328.664ZM329.9 4.54545C329.426 4.54545 329.017 4.38411 328.674 4.06143C328.338 3.73875 328.17 3.35085 328.17 2.89773C328.17 2.4446 328.338 2.0567 328.674 1.73402C329.017 1.41134 329.426 1.25 329.9 1.25C330.373 1.25 330.778 1.41134 331.115 1.73402C331.458 2.0567 331.63 2.4446 331.63 2.89773C331.63 3.35085 331.458 3.73875 331.115 4.06143C330.778 4.38411 330.373 4.54545 329.9 4.54545ZM337.976 13.4844V23H335.546V7.18182H337.894V9.65341H338.1C338.47 8.85014 339.033 8.20478 339.789 7.71733C340.544 7.22301 341.519 6.97585 342.713 6.97585C343.784 6.97585 344.722 7.19555 345.525 7.63494C346.328 8.06747 346.953 8.72656 347.399 9.61222C347.845 10.491 348.068 11.6032 348.068 12.9489V23H345.638V13.1136C345.638 11.871 345.315 10.9029 344.67 10.2095C344.025 9.50923 343.139 9.15909 342.013 9.15909C341.237 9.15909 340.544 9.3273 339.933 9.66371C339.329 10.0001 338.851 10.491 338.501 11.1364C338.151 11.7817 337.976 12.5644 337.976 13.4844ZM359.389 7.18182V9.24148H351.191V7.18182H359.389ZM353.581 3.39205H356.011V18.4688C356.011 19.1553 356.111 19.6702 356.31 20.0135C356.516 20.3499 356.777 20.5765 357.092 20.6932C357.415 20.803 357.755 20.858 358.112 20.858C358.38 20.858 358.599 20.8442 358.771 20.8168C358.943 20.7824 359.08 20.755 359.183 20.7344L359.677 22.9176C359.512 22.9794 359.282 23.0412 358.987 23.103C358.692 23.1716 358.318 23.206 357.865 23.206C357.178 23.206 356.505 23.0584 355.846 22.7631C355.194 22.4679 354.652 22.0182 354.219 21.4141C353.793 20.8099 353.581 20.0478 353.581 19.1278V3.39205ZM373.966 10.7244L371.783 11.3423C371.646 10.9785 371.443 10.6249 371.175 10.2816C370.914 9.93146 370.557 9.64311 370.104 9.41655C369.651 9.18999 369.071 9.0767 368.364 9.0767C367.396 9.0767 366.589 9.29983 365.944 9.74609C365.305 10.1855 364.986 10.745 364.986 11.4247C364.986 12.0289 365.206 12.506 365.645 12.8562C366.084 13.2063 366.771 13.4981 367.705 13.7315L370.053 14.3082C371.467 14.6515 372.521 15.1767 373.214 15.8839C373.908 16.5842 374.254 17.487 374.254 18.5923C374.254 19.4986 373.994 20.3087 373.472 21.0227C372.957 21.7367 372.236 22.2997 371.309 22.7116C370.382 23.1236 369.304 23.3295 368.075 23.3295C366.462 23.3295 365.127 22.9794 364.069 22.2791C363.012 21.5788 362.343 20.5559 362.061 19.2102L364.368 18.6335C364.588 19.4848 365.003 20.1233 365.614 20.549C366.232 20.9747 367.039 21.1875 368.034 21.1875C369.167 21.1875 370.066 20.9472 370.732 20.4666C371.405 19.9792 371.742 19.3956 371.742 18.7159C371.742 18.1667 371.549 17.7067 371.165 17.3359C370.78 16.9583 370.19 16.6768 369.394 16.4915L366.757 15.8736C365.309 15.5303 364.244 14.9982 363.565 14.2773C362.892 13.5496 362.556 12.6399 362.556 11.5483C362.556 10.6558 362.806 9.86624 363.307 9.17969C363.815 8.49313 364.505 7.95419 365.377 7.56285C366.256 7.17152 367.252 6.97585 368.364 6.97585C369.929 6.97585 371.158 7.31913 372.051 8.00568C372.95 8.69223 373.588 9.59848 373.966 10.7244ZM392.495 23.3295C391.067 23.3295 389.814 22.9897 388.736 22.31C387.665 21.6303 386.828 20.6795 386.224 19.4574C385.626 18.2353 385.328 16.8073 385.328 15.1733C385.328 13.5256 385.626 12.0872 386.224 10.8583C386.828 9.62938 387.665 8.67507 388.736 7.99538C389.814 7.3157 391.067 6.97585 392.495 6.97585C393.923 6.97585 395.173 7.3157 396.244 7.99538C397.322 8.67507 398.159 9.62938 398.757 10.8583C399.361 12.0872 399.663 13.5256 399.663 15.1733C399.663 16.8073 399.361 18.2353 398.757 19.4574C398.159 20.6795 397.322 21.6303 396.244 22.31C395.173 22.9897 393.923 23.3295 392.495 23.3295ZM392.495 21.1463C393.58 21.1463 394.473 20.8683 395.173 20.3121C395.873 19.756 396.391 19.0249 396.728 18.1186C397.064 17.2124 397.233 16.2306 397.233 15.1733C397.233 14.116 397.064 13.1308 396.728 12.2177C396.391 11.3046 395.873 10.5665 395.173 10.0036C394.473 9.44058 393.58 9.15909 392.495 9.15909C391.411 9.15909 390.518 9.44058 389.818 10.0036C389.117 10.5665 388.599 11.3046 388.263 12.2177C387.926 13.1308 387.758 14.116 387.758 15.1733C387.758 16.2306 387.926 17.2124 388.263 18.1186C388.599 19.0249 389.117 19.756 389.818 20.3121C390.518 20.8683 391.411 21.1463 392.495 21.1463ZM410.417 7.18182V9.24148H401.89V7.18182H410.417ZM404.444 23V4.99858C404.444 4.09233 404.657 3.33712 405.082 2.73295C405.508 2.12879 406.061 1.67566 406.74 1.37358C407.42 1.07149 408.138 0.920453 408.893 0.920453C409.49 0.920453 409.978 0.968512 410.355 1.06463C410.733 1.16075 411.014 1.25 411.2 1.33239L410.499 3.43324C410.376 3.39204 410.204 3.34055 409.984 3.27876C409.772 3.21697 409.49 3.18608 409.14 3.18608C408.337 3.18608 407.757 3.38861 407.4 3.79368C407.049 4.19874 406.874 4.79261 406.874 5.57528V23H404.444ZM240.104 42.1818V44.2415H231.906V42.1818H240.104ZM234.295 38.392H236.726V53.4688C236.726 54.1553 236.825 54.6702 237.025 55.0135C237.23 55.3499 237.491 55.5765 237.807 55.6932C238.13 55.803 238.47 55.858 238.827 55.858C239.094 55.858 239.314 55.8442 239.486 55.8168C239.657 55.7824 239.795 55.755 239.898 55.7344L240.392 57.9176C240.227 57.9794 239.997 58.0412 239.702 58.103C239.407 58.1716 239.033 58.206 238.58 58.206C237.893 58.206 237.22 58.0584 236.561 57.7631C235.909 57.4679 235.366 57.0182 234.934 56.4141C234.508 55.8099 234.295 55.0478 234.295 54.1278V38.392ZM246.53 48.4844V58H244.099V36.9091H246.53V44.6534H246.736C247.107 43.8364 247.663 43.1876 248.404 42.707C249.152 42.2196 250.148 41.9759 251.391 41.9759C252.469 41.9759 253.413 42.1921 254.223 42.6246C255.033 43.0503 255.661 43.706 256.107 44.5916C256.56 45.4704 256.787 46.5895 256.787 47.9489V58H254.357V48.1136C254.357 46.8572 254.03 45.8858 253.378 45.1992C252.733 44.5058 251.837 44.1591 250.69 44.1591C249.894 44.1591 249.18 44.3273 248.548 44.6637C247.924 45.0001 247.429 45.491 247.065 46.1364C246.708 46.7817 246.53 47.5644 246.53 48.4844ZM267.865 58.3295C266.341 58.3295 265.026 57.9931 263.921 57.3203C262.823 56.6406 261.975 55.6932 261.377 54.478C260.787 53.2559 260.492 51.8348 260.492 50.2145C260.492 48.5942 260.787 47.1662 261.377 45.9304C261.975 44.6877 262.805 43.7197 263.87 43.0263C264.941 42.326 266.19 41.9759 267.618 41.9759C268.442 41.9759 269.256 42.1132 270.059 42.3878C270.862 42.6624 271.593 43.1087 272.252 43.7266C272.911 44.3376 273.437 45.1477 273.828 46.157C274.219 47.1662 274.415 48.4089 274.415 49.8849V50.9148H262.222V48.8139H271.943C271.943 47.9214 271.765 47.125 271.408 46.4247C271.058 45.7244 270.557 45.1718 269.904 44.7667C269.259 44.3616 268.497 44.1591 267.618 44.1591C266.65 44.1591 265.813 44.3994 265.105 44.88C264.405 45.3537 263.866 45.9716 263.489 46.7337C263.111 47.4957 262.922 48.3127 262.922 49.1847V50.5852C262.922 51.7798 263.128 52.7925 263.54 53.6232C263.959 54.4471 264.539 55.0753 265.28 55.5078C266.022 55.9335 266.884 56.1463 267.865 56.1463C268.504 56.1463 269.081 56.0571 269.595 55.8786C270.117 55.6932 270.567 55.4186 270.945 55.0547C271.322 54.6839 271.614 54.224 271.82 53.6747L274.168 54.3338C273.921 55.1302 273.505 55.8305 272.922 56.4347C272.338 57.032 271.617 57.4988 270.759 57.8352C269.901 58.1648 268.936 58.3295 267.865 58.3295ZM292.9 58.3295C291.376 58.3295 290.062 57.9931 288.956 57.3203C287.858 56.6406 287.01 55.6932 286.413 54.478C285.822 53.2559 285.527 51.8348 285.527 50.2145C285.527 48.5942 285.822 47.1662 286.413 45.9304C287.01 44.6877 287.841 43.7197 288.905 43.0263C289.976 42.326 291.225 41.9759 292.653 41.9759C293.477 41.9759 294.291 42.1132 295.094 42.3878C295.897 42.6624 296.628 43.1087 297.288 43.7266C297.947 44.3376 298.472 45.1477 298.863 46.157C299.255 47.1662 299.45 48.4089 299.45 49.8849V50.9148H287.257V48.8139H296.979C296.979 47.9214 296.8 47.125 296.443 46.4247C296.093 45.7244 295.592 45.1718 294.94 44.7667C294.294 44.3616 293.532 44.1591 292.653 44.1591C291.685 44.1591 290.848 44.3994 290.141 44.88C289.44 45.3537 288.901 45.9716 288.524 46.7337C288.146 47.4957 287.957 48.3127 287.957 49.1847V50.5852C287.957 51.7798 288.163 52.7925 288.575 53.6232C288.994 54.4471 289.574 55.0753 290.316 55.5078C291.057 55.9335 291.919 56.1463 292.9 56.1463C293.539 56.1463 294.116 56.0571 294.631 55.8786C295.152 55.6932 295.602 55.4186 295.98 55.0547C296.357 54.6839 296.649 54.224 296.855 53.6747L299.203 54.3338C298.956 55.1302 298.541 55.8305 297.957 56.4347C297.373 57.032 296.652 57.4988 295.794 57.8352C294.936 58.1648 293.972 58.3295 292.9 58.3295ZM309.12 58.3295C307.802 58.3295 306.638 57.9966 305.629 57.3306C304.62 56.6578 303.83 55.7103 303.261 54.4883C302.691 53.2594 302.406 51.8073 302.406 50.1321C302.406 48.4706 302.691 47.0289 303.261 45.8068C303.83 44.5848 304.623 43.6407 305.639 42.9748C306.656 42.3088 307.83 41.9759 309.161 41.9759C310.191 41.9759 311.005 42.1475 311.602 42.4908C312.206 42.8272 312.666 43.2116 312.982 43.6442C313.305 44.0698 313.555 44.42 313.734 44.6946H313.94V36.9091H316.37V58H314.022V55.5696H313.734C313.555 55.858 313.301 56.2218 312.972 56.6612C312.642 57.0937 312.172 57.4817 311.561 57.8249C310.95 58.1613 310.136 58.3295 309.12 58.3295ZM309.45 56.1463C310.425 56.1463 311.249 55.8923 311.921 55.3842C312.594 54.8693 313.106 54.1587 313.456 53.2525C313.806 52.3394 313.981 51.2855 313.981 50.0909C313.981 48.91 313.809 47.8768 313.466 46.9911C313.123 46.0986 312.615 45.4052 311.942 44.9109C311.269 44.4097 310.438 44.1591 309.45 44.1591C308.42 44.1591 307.562 44.4234 306.875 44.9521C306.196 45.4738 305.684 46.1844 305.341 47.0838C305.004 47.9763 304.836 48.9787 304.836 50.0909C304.836 51.2169 305.008 52.2398 305.351 53.1598C305.701 54.0729 306.216 54.8007 306.896 55.343C307.582 55.8786 308.434 56.1463 309.45 56.1463ZM327.544 64.2614C326.37 64.2614 325.361 64.1103 324.516 63.8082C323.672 63.513 322.968 63.1217 322.405 62.6342C321.849 62.1536 321.406 61.6387 321.077 61.0895L323.013 59.7301C323.232 60.0185 323.51 60.348 323.847 60.7188C324.183 61.0964 324.643 61.4225 325.227 61.6971C325.817 61.9786 326.59 62.1193 327.544 62.1193C328.821 62.1193 329.875 61.8104 330.706 61.1925C331.536 60.5746 331.952 59.6065 331.952 58.2884V55.0753H331.746C331.567 55.3636 331.313 55.7206 330.984 56.1463C330.661 56.5651 330.194 56.9393 329.583 57.2688C328.979 57.5915 328.162 57.7528 327.132 57.7528C325.855 57.7528 324.708 57.4508 323.692 56.8466C322.683 56.2424 321.883 55.3636 321.293 54.2102C320.709 53.0568 320.418 51.6562 320.418 50.0085C320.418 48.3883 320.702 46.9774 321.272 45.7759C321.842 44.5676 322.635 43.6339 323.651 42.9748C324.667 42.3088 325.841 41.9759 327.173 41.9759C328.203 41.9759 329.02 42.1475 329.624 42.4908C330.235 42.8272 330.702 43.2116 331.025 43.6442C331.354 44.0698 331.608 44.42 331.787 44.6946H332.034V42.1818H334.382V58.4531C334.382 59.8125 334.073 60.9179 333.455 61.7692C332.844 62.6274 332.02 63.2556 330.984 63.6538C329.954 64.0588 328.807 64.2614 327.544 64.2614ZM327.462 55.5696C328.436 55.5696 329.26 55.3465 329.933 54.9002C330.606 54.454 331.117 53.812 331.468 52.9744C331.818 52.1368 331.993 51.1345 331.993 49.9673C331.993 48.8277 331.821 47.8219 331.478 46.9499C331.135 46.078 330.627 45.3949 329.954 44.9006C329.281 44.4062 328.45 44.1591 327.462 44.1591C326.432 44.1591 325.574 44.42 324.887 44.9418C324.207 45.4635 323.696 46.1638 323.353 47.0426C323.016 47.9214 322.848 48.8963 322.848 49.9673C322.848 51.0658 323.02 52.0373 323.363 52.8817C323.713 53.7193 324.228 54.3784 324.908 54.859C325.594 55.3327 326.445 55.5696 327.462 55.5696ZM345.463 58.3295C343.939 58.3295 342.624 57.9931 341.519 57.3203C340.42 56.6406 339.572 55.6932 338.975 54.478C338.385 53.2559 338.089 51.8348 338.089 50.2145C338.089 48.5942 338.385 47.1662 338.975 45.9304C339.572 44.6877 340.403 43.7197 341.467 43.0263C342.538 42.326 343.788 41.9759 345.216 41.9759C346.04 41.9759 346.853 42.1132 347.657 42.3878C348.46 42.6624 349.191 43.1087 349.85 43.7266C350.509 44.3376 351.034 45.1477 351.426 46.157C351.817 47.1662 352.013 48.4089 352.013 49.8849V50.9148H339.82V48.8139H349.541C349.541 47.9214 349.363 47.125 349.006 46.4247C348.655 45.7244 348.154 45.1718 347.502 44.7667C346.857 44.3616 346.095 44.1591 345.216 44.1591C344.248 44.1591 343.41 44.3994 342.703 44.88C342.003 45.3537 341.464 45.9716 341.086 46.7337C340.709 47.4957 340.52 48.3127 340.52 49.1847V50.5852C340.52 51.7798 340.726 52.7925 341.138 53.6232C341.556 54.4471 342.137 55.0753 342.878 55.5078C343.62 55.9335 344.481 56.1463 345.463 56.1463C346.101 56.1463 346.678 56.0571 347.193 55.8786C347.715 55.6932 348.165 55.4186 348.542 55.0547C348.92 54.6839 349.212 54.224 349.418 53.6747L351.766 54.3338C351.518 55.1302 351.103 55.8305 350.519 56.4347C349.936 57.032 349.215 57.4988 348.357 57.8352C347.499 58.1648 346.534 58.3295 345.463 58.3295Z" fill="black"/>
</svg>
