<svg width="281" height="420" viewBox="0 0 281 420" fill="none" xmlns="http://www.w3.org/2000/svg">
<line x1="8.30227" y1="122.866" x2="262.302" y2="277.866" stroke="black" stroke-width="5"/>
<line x1="15.4974" y1="124.886" x2="28.4974" y2="408.886" stroke="black" stroke-width="5"/>
<circle cx="13" cy="124" r="13" fill="black"/>
<circle cx="261" cy="280" r="13" fill="black"/>
<circle cx="26" cy="407" r="13" fill="black"/>
<path d="M24.5917 105.516C24.8769 106.294 25.7386 106.694 26.5164 106.408L39.1912 101.761C39.969 101.476 40.3683 100.614 40.0832 99.8362C39.798 99.0584 38.9362 98.6591 38.1585 98.9442L26.8919 103.075L22.7609 91.8088C22.4757 91.031 21.614 90.6317 20.8362 90.9169C20.0584 91.202 19.6591 92.0638 19.9443 92.8415L24.5917 105.516ZM62.639 22.3693L24.639 104.369L27.361 105.631L65.361 23.6307L62.639 22.3693Z" fill="black"/>
<path d="M157.592 202.516C157.877 203.294 158.739 203.694 159.516 203.408L172.191 198.761C172.969 198.476 173.368 197.614 173.083 196.836C172.798 196.058 171.936 195.659 171.158 195.944L159.892 200.075L155.761 188.809C155.476 188.031 154.614 187.632 153.836 187.917C153.058 188.202 152.659 189.064 152.944 189.842L157.592 202.516ZM195.639 119.369L157.639 201.369L160.361 202.631L198.361 120.631L195.639 119.369Z" fill="black"/>
<path d="M64.419 0.90909L70.6804 18.6634H70.9276L77.1889 0.90909H79.8665L72.1222 22H69.4858L61.7415 0.90909H64.419ZM87.9815 22.3295C86.4574 22.3295 85.1426 21.9931 84.0373 21.3203C82.9388 20.6406 82.0909 19.6932 81.4936 18.478C80.9032 17.2559 80.608 15.8348 80.608 14.2145C80.608 12.5942 80.9032 11.1662 81.4936 9.9304C82.0909 8.68774 82.9216 7.7197 83.9858 7.02628C85.0568 6.32599 86.3063 5.97585 87.7344 5.97585C88.5582 5.97585 89.3718 6.11316 90.1751 6.38778C90.9783 6.6624 91.7095 7.10866 92.3686 7.72656C93.0277 8.33759 93.5529 9.14773 93.9442 10.157C94.3356 11.1662 94.5312 12.4089 94.5312 13.8849V14.9148H82.3381V12.8139H92.0597C92.0597 11.9214 91.8812 11.125 91.5241 10.4247C91.174 9.72443 90.6728 9.17176 90.0206 8.76669C89.3752 8.36162 88.6132 8.15909 87.7344 8.15909C86.7663 8.15909 85.9287 8.39938 85.2216 8.87997C84.5213 9.35369 83.9824 9.97159 83.6048 10.7337C83.2272 11.4957 83.0384 12.3127 83.0384 13.1847V14.5852C83.0384 15.7798 83.2443 16.7925 83.6562 17.6232C84.075 18.4471 84.6552 19.0753 85.3967 19.5078C86.1381 19.9335 86.9998 20.1463 87.9815 20.1463C88.62 20.1463 89.1967 20.0571 89.7116 19.8786C90.2334 19.6932 90.6831 19.4186 91.0607 19.0547C91.4383 18.6839 91.7301 18.224 91.9361 17.6747L94.2841 18.3338C94.0369 19.1302 93.6216 19.8305 93.038 20.4347C92.4544 21.032 91.7335 21.4988 90.8754 21.8352C90.0172 22.1648 89.0526 22.3295 87.9815 22.3295ZM98.2283 22V6.18182H100.576V8.57102H100.741C101.029 7.78835 101.551 7.15329 102.306 6.66584C103.062 6.17838 103.913 5.93466 104.86 5.93466C105.039 5.93466 105.262 5.93809 105.53 5.94496C105.798 5.95182 106 5.96212 106.137 5.97585V8.44744C106.055 8.42685 105.866 8.39595 105.571 8.35476C105.283 8.3067 104.977 8.28267 104.654 8.28267C103.886 8.28267 103.199 8.44401 102.595 8.76669C101.998 9.0825 101.524 9.5219 101.174 10.0849C100.83 10.641 100.659 11.276 100.659 11.9901V22H98.2283ZM116.889 6.18182V8.24148H108.691V6.18182H116.889ZM111.081 2.39205H113.511V17.4688C113.511 18.1553 113.611 18.6702 113.81 19.0135C114.016 19.3499 114.277 19.5765 114.592 19.6932C114.915 19.803 115.255 19.858 115.612 19.858C115.88 19.858 116.099 19.8442 116.271 19.8168C116.443 19.7824 116.58 19.755 116.683 19.7344L117.177 21.9176C117.012 21.9794 116.782 22.0412 116.487 22.103C116.192 22.1716 115.818 22.206 115.365 22.206C114.678 22.206 114.005 22.0584 113.346 21.7631C112.694 21.4679 112.152 21.0182 111.719 20.4141C111.293 19.8099 111.081 19.0478 111.081 18.1278V2.39205ZM127.007 22.3295C125.483 22.3295 124.168 21.9931 123.063 21.3203C121.964 20.6406 121.116 19.6932 120.519 18.478C119.929 17.2559 119.633 15.8348 119.633 14.2145C119.633 12.5942 119.929 11.1662 120.519 9.9304C121.116 8.68774 121.947 7.7197 123.011 7.02628C124.082 6.32599 125.332 5.97585 126.76 5.97585C127.584 5.97585 128.397 6.11316 129.2 6.38778C130.004 6.6624 130.735 7.10866 131.394 7.72656C132.053 8.33759 132.578 9.14773 132.97 10.157C133.361 11.1662 133.557 12.4089 133.557 13.8849V14.9148H121.363V12.8139H131.085C131.085 11.9214 130.907 11.125 130.55 10.4247C130.199 9.72443 129.698 9.17176 129.046 8.76669C128.401 8.36162 127.639 8.15909 126.76 8.15909C125.792 8.15909 124.954 8.39938 124.247 8.87997C123.547 9.35369 123.008 9.97159 122.63 10.7337C122.253 11.4957 122.064 12.3127 122.064 13.1847V14.5852C122.064 15.7798 122.27 16.7925 122.682 17.6232C123.1 18.4471 123.681 19.0753 124.422 19.5078C125.164 19.9335 126.025 20.1463 127.007 20.1463C127.645 20.1463 128.222 20.0571 128.737 19.8786C129.259 19.6932 129.709 19.4186 130.086 19.0547C130.464 18.6839 130.756 18.224 130.961 17.6747L133.309 18.3338C133.062 19.1302 132.647 19.8305 132.063 20.4347C131.48 21.032 130.759 21.4988 129.901 21.8352C129.043 22.1648 128.078 22.3295 127.007 22.3295ZM138.641 6.18182L142.431 12.6491L146.221 6.18182H149.022L143.914 14.0909L149.022 22H146.221L142.431 15.8622L138.641 22H135.84L140.866 14.0909L135.84 6.18182H138.641Z" fill="black"/>
<path d="M199.554 118V96.9091H212.283V99.1747H202.108V106.301H211.624V108.567H202.108V115.734H212.447V118H199.554ZM222.529 118.33C221.211 118.33 220.048 117.997 219.038 117.331C218.029 116.658 217.24 115.71 216.67 114.488C216.1 113.259 215.815 111.807 215.815 110.132C215.815 108.471 216.1 107.029 216.67 105.807C217.24 104.585 218.033 103.641 219.049 102.975C220.065 102.309 221.239 101.976 222.571 101.976C223.6 101.976 224.414 102.147 225.011 102.491C225.616 102.827 226.076 103.212 226.391 103.644C226.714 104.07 226.965 104.42 227.143 104.695H227.349V96.9091H229.779V118H227.431V115.57H227.143C226.965 115.858 226.711 116.222 226.381 116.661C226.051 117.094 225.581 117.482 224.97 117.825C224.359 118.161 223.546 118.33 222.529 118.33ZM222.859 116.146C223.834 116.146 224.658 115.892 225.331 115.384C226.003 114.869 226.515 114.159 226.865 113.252C227.215 112.339 227.39 111.286 227.39 110.091C227.39 108.91 227.219 107.877 226.875 106.991C226.532 106.099 226.024 105.405 225.351 104.911C224.678 104.41 223.848 104.159 222.859 104.159C221.829 104.159 220.971 104.423 220.284 104.952C219.605 105.474 219.093 106.184 218.75 107.084C218.414 107.976 218.245 108.979 218.245 110.091C218.245 111.217 218.417 112.24 218.76 113.16C219.11 114.073 219.625 114.801 220.305 115.343C220.992 115.879 221.843 116.146 222.859 116.146ZM240.953 124.261C239.779 124.261 238.77 124.11 237.925 123.808C237.081 123.513 236.377 123.122 235.814 122.634C235.258 122.154 234.815 121.639 234.486 121.089L236.422 119.73C236.642 120.018 236.92 120.348 237.256 120.719C237.592 121.096 238.052 121.422 238.636 121.697C239.226 121.979 239.999 122.119 240.953 122.119C242.23 122.119 243.284 121.81 244.115 121.192C244.945 120.575 245.361 119.607 245.361 118.288V115.075H245.155C244.976 115.364 244.722 115.721 244.393 116.146C244.07 116.565 243.603 116.939 242.992 117.269C242.388 117.592 241.571 117.753 240.541 117.753C239.264 117.753 238.118 117.451 237.102 116.847C236.092 116.242 235.292 115.364 234.702 114.21C234.118 113.057 233.827 111.656 233.827 110.009C233.827 108.388 234.112 106.977 234.681 105.776C235.251 104.568 236.044 103.634 237.06 102.975C238.076 102.309 239.25 101.976 240.582 101.976C241.612 101.976 242.429 102.147 243.033 102.491C243.644 102.827 244.111 103.212 244.434 103.644C244.763 104.07 245.018 104.42 245.196 104.695H245.443V102.182H247.791V118.453C247.791 119.812 247.482 120.918 246.864 121.769C246.253 122.627 245.429 123.256 244.393 123.654C243.363 124.059 242.216 124.261 240.953 124.261ZM240.871 115.57C241.846 115.57 242.67 115.346 243.342 114.9C244.015 114.454 244.527 113.812 244.877 112.974C245.227 112.137 245.402 111.134 245.402 109.967C245.402 108.828 245.23 107.822 244.887 106.95C244.544 106.078 244.036 105.395 243.363 104.901C242.69 104.406 241.859 104.159 240.871 104.159C239.841 104.159 238.983 104.42 238.296 104.942C237.616 105.464 237.105 106.164 236.762 107.043C236.425 107.921 236.257 108.896 236.257 109.967C236.257 111.066 236.429 112.037 236.772 112.882C237.122 113.719 237.637 114.378 238.317 114.859C239.003 115.333 239.855 115.57 240.871 115.57ZM258.872 118.33C257.348 118.33 256.033 117.993 254.928 117.32C253.829 116.641 252.982 115.693 252.384 114.478C251.794 113.256 251.499 111.835 251.499 110.214C251.499 108.594 251.794 107.166 252.384 105.93C252.982 104.688 253.812 103.72 254.876 103.026C255.947 102.326 257.197 101.976 258.625 101.976C259.449 101.976 260.262 102.113 261.066 102.388C261.869 102.662 262.6 103.109 263.259 103.727C263.918 104.338 264.444 105.148 264.835 106.157C265.226 107.166 265.422 108.409 265.422 109.885V110.915H253.229V108.814H262.95C262.95 107.921 262.772 107.125 262.415 106.425C262.065 105.724 261.563 105.172 260.911 104.767C260.266 104.362 259.504 104.159 258.625 104.159C257.657 104.159 256.819 104.399 256.112 104.88C255.412 105.354 254.873 105.972 254.495 106.734C254.118 107.496 253.929 108.313 253.929 109.185V110.585C253.929 111.78 254.135 112.792 254.547 113.623C254.966 114.447 255.546 115.075 256.287 115.508C257.029 115.933 257.89 116.146 258.872 116.146C259.511 116.146 260.087 116.057 260.602 115.879C261.124 115.693 261.574 115.419 261.951 115.055C262.329 114.684 262.621 114.224 262.827 113.675L265.175 114.334C264.928 115.13 264.512 115.83 263.929 116.435C263.345 117.032 262.624 117.499 261.766 117.835C260.908 118.165 259.943 118.33 258.872 118.33ZM280.324 105.724L278.14 106.342C278.003 105.978 277.8 105.625 277.533 105.282C277.272 104.931 276.915 104.643 276.462 104.417C276.009 104.19 275.428 104.077 274.721 104.077C273.753 104.077 272.946 104.3 272.301 104.746C271.663 105.185 271.343 105.745 271.343 106.425C271.343 107.029 271.563 107.506 272.002 107.856C272.442 108.206 273.128 108.498 274.062 108.732L276.41 109.308C277.824 109.652 278.878 110.177 279.572 110.884C280.265 111.584 280.612 112.487 280.612 113.592C280.612 114.499 280.351 115.309 279.829 116.023C279.314 116.737 278.593 117.3 277.667 117.712C276.74 118.124 275.662 118.33 274.433 118.33C272.819 118.33 271.484 117.979 270.427 117.279C269.37 116.579 268.7 115.556 268.419 114.21L270.725 113.634C270.945 114.485 271.361 115.123 271.972 115.549C272.589 115.975 273.396 116.188 274.392 116.188C275.525 116.188 276.424 115.947 277.09 115.467C277.763 114.979 278.099 114.396 278.099 113.716C278.099 113.167 277.907 112.707 277.522 112.336C277.138 111.958 276.547 111.677 275.751 111.491L273.115 110.874C271.666 110.53 270.602 109.998 269.922 109.277C269.249 108.55 268.913 107.64 268.913 106.548C268.913 105.656 269.164 104.866 269.665 104.18C270.173 103.493 270.863 102.954 271.735 102.563C272.614 102.172 273.609 101.976 274.721 101.976C276.287 101.976 277.516 102.319 278.408 103.006C279.307 103.692 279.946 104.598 280.324 105.724Z" fill="black"/>
</svg>
